<svg xmlns="http://www.w3.org/2000/svg" id="Capa_2" data-name="Capa 2" viewBox="0 0 2469.39 1121.35"><defs><style>      .cls-1 {        fill: #201e1e;      }      .cls-1, .cls-2, .cls-3 {        fill-rule: evenodd;      }      .cls-2 {        fill: #0079c0;      }      .cls-3 {        fill: #b13335;      }    </style></defs><g id="Capa_1-2" data-name="Capa 1"><path class="cls-3" d="M1590.55,205.27c21.42-30.67,63.63-38.16,94.3-16.75,30.67,21.41,38.17,63.63,16.75,94.3-21.41,30.67-63.62,38.16-94.29,16.75-30.67-21.41-38.17-63.63-16.76-94.3"></path><path class="cls-1" d="M1782.17,44.06c33.88-15.85,74.18-1.24,90.04,32.64,15.85,33.88,1.24,74.19-32.65,90.04-33.88,15.85-74.18,1.24-90.04-32.64-15.85-33.88-1.24-74.19,32.65-90.04"></path><path class="cls-1" d="M2028.71,.25c37.28,3.21,64.89,36.02,61.67,73.3-3.21,37.26-36.02,64.87-73.3,61.66-37.26-3.21-64.89-36.02-61.68-73.31,3.21-37.26,36.04-64.87,73.31-61.65"></path><path class="cls-1" d="M2264.14,85.59c30.65,21.43,38.17,63.65,16.75,94.32-21.43,30.67-63.65,38.17-94.32,16.76-30.67-21.42-38.17-63.65-16.76-94.32,21.42-30.67,63.63-38.17,94.32-16.75"></path><path class="cls-1" d="M2425.34,277.21c15.83,33.88,1.22,74.19-32.64,90.04-33.88,15.85-74.21,1.24-90.04-32.63-15.87-33.88-1.24-74.19,32.62-90.03,33.88-15.88,74.19-1.24,90.06,32.62"></path><path class="cls-1" d="M2469.14,523.77c-3.21,37.26-36.02,64.87-73.29,61.65-37.28-3.21-64.89-36.02-61.68-73.28,3.21-37.29,36.04-64.89,73.31-61.68,37.26,3.21,64.86,36.02,61.66,73.31"></path><path class="cls-1" d="M2383.8,759.18c-21.42,30.67-63.65,38.17-94.32,16.76-30.65-21.42-38.17-63.63-16.75-94.3,21.41-30.67,63.65-38.17,94.32-16.75,30.67,21.41,38.16,63.62,16.75,94.29"></path><path class="cls-2" d="M1790.55,385.78c0-4.37,1.45-8.15,4.39-11.31,2.92-3.17,6.93-4.75,12.05-4.75h108.49c4.14,0,7.92,1.45,11.34,4.36,3.4,2.94,5.22,6.83,5.48,11.69v397.48h200.92c4.39,0,8.16,1.44,11.31,4.36,3.17,2.94,4.77,6.95,4.77,12.07v96.06c0,4.15-1.34,7.91-4.15,11.33-2.8,3.4-6.8,5.25-11.93,5.48h-326.61c-10.71,0-16.06-5.35-16.06-16.08V385.78Zm-211.1,0c0-4.37,1.34-8.15,4.01-11.31,2.69-3.17,6.72-4.75,12.07-4.75h107.76c3.65,0,7.56,1.45,11.69,4.36,4.16,2.94,6.21,6.83,6.21,11.69v510.71c0,10.73-5.96,16.08-17.91,16.08h-107.76c-10.71,0-16.08-5.35-16.08-16.08V385.78Zm-562.52,0c0-4.37,1.34-8.15,4.01-11.31,2.69-3.17,6.7-4.75,12.07-4.75h119.81c3.42,0,6.95,.84,10.6,2.54,3.65,1.7,6.82,4.64,9.38,8.78,30.92,49.92,61.49,99.23,91.8,147.71,30.34,48.47,61.01,97.65,92.07,147.7V383.6c.97-4.39,2.92-7.81,5.84-10.25,2.92-2.41,6.34-3.63,10.22-3.63h104.12c5.12,0,9.36,1.45,12.79,4.24,3.42,2.81,5.12,6.7,5.12,11.82V898.32c0,4.87-1.47,8.42-4.39,10.73-2.94,2.31-6.95,3.52-12.05,3.52h-116.55c-3.15,0-5.96-1.09-8.4-3.29-2.44-2.18-5-5.1-7.66-8.75-32.27-53.59-64.3-106.68-95.85-159.04-31.66-52.35-63.69-105.34-96.32-159.04v314.05c0,5.37-1.22,9.38-3.65,12.07-2.44,2.67-6.82,4.01-13.14,4.01h-103.75c-5.6,0-9.64-1.59-12.19-4.62-2.54-3.04-3.89-6.7-3.89-11.08V385.78Zm-303.89,154.53c-4.64,12.42-9.25,25.82-14,40.2-4.75,14.36-9.51,28.85-14.13,43.46-4.64,14.61-9.26,28.99-14.01,43.25-4.76,14.24-9.51,27.63-14.13,40.05h112.15l-55.89-166.95Zm-66.5-156.35c.25-1.47,1.11-3.04,2.46-4.75,1.34-1.7,2.92-3.29,4.87-4.74,1.94-1.47,4.02-2.69,6.22-3.53,2.18-.86,4.26-1.22,6.19-1.22h93.52c4.16,0,7.68,1.22,10.6,3.76,2.94,2.56,5.12,4.87,6.57,6.82l9.15,20.82,191.77,495.01c1.96,4.87,1.6,8.78-1.09,11.82-2.67,3.02-7.3,4.62-13.88,4.62h-104.85c-5.58,0-9.87-1.09-12.89-3.17-3.04-2.06-5.48-5.48-7.2-10.35-4.87-12.43-9.61-24.83-14.23-37.13-4.64-12.3-9.26-24.6-13.88-37.03h-194c-4.64,12.43-9.25,24.73-14,37.03-4.75,12.3-9.51,24.71-14.13,37.13-3.17,9.01-9.38,13.52-18.64,13.52h-107.76c-4.64,0-8.4-1.21-11.44-3.65-3.06-2.43-3.67-6.09-1.7-10.96l198.34-514.01Zm-504.79,117.26v280.57h30.56c5.61,0,11.09-.25,16.44-.61,5.22-.35,10.6-.74,15.93-1.21,18.16-1.47,35.21-5.84,50.91-13.27,15.83-7.43,29.6-17.17,41.4-29.22,11.69-12.07,20.95-26.2,27.65-42.51s9.99-34.09,9.99-53.34c0-20.32-3.78-39.19-11.44-56.26-7.68-17.15-18.03-32.01-31.18-44.57-13.03-12.53-28.38-22.28-46.03-29.23-17.53-6.93-36.3-10.35-56.13-10.35h-48.09Zm333.88,140.65c0,25.82-3.27,50.3-9.87,73.56-6.57,23.24-15.95,44.92-28.13,65.01-12.18,20.09-26.66,38.35-43.58,54.69-16.94,16.31-35.69,30.19-56.26,41.63-20.59,11.46-42.87,20.22-66.73,26.43-23.87,6.22-48.58,9.38-74.15,9.38H16.79c-4.37,0-8.28-.96-11.69-2.92-3.4-1.95-5.1-6.08-5.1-12.42V386.87c0-5.1,1.45-9.24,4.24-12.4,2.81-3.17,6.95-4.75,12.55-4.75H196.91c25.57,0,50.28,3.15,74.02,9.49,23.74,6.34,45.91,15.35,66.48,27.04,20.59,11.69,39.34,25.69,56.39,42,17.05,16.31,31.65,34.58,43.73,54.79,12.05,20.22,21.41,42.03,28.13,65.39,6.7,23.39,9.97,47.87,9.97,73.43"></path><path class="cls-3" d="M1959.27,1073.92c1.07,.88,2.46,2.06,4.11,3.53,1.68,1.49,3.57,2.96,5.71,4.41,3.21,2.15,6.38,3.82,9.53,5.02,3.15,1.2,6.45,1.78,9.91,1.78,3.21,0,5.92-.38,8.08-1.11,2.18-.71,3.89-1.66,5.14-2.85,1.26-1.2,2.16-2.58,2.71-4.16,.53-1.57,.77-3.23,.77-4.99,0-1.96-.71-3.72-2.18-5.25-1.49-1.55-3.32-2.9-5.46-4.12-2.14-1.19-4.37-2.23-6.72-3.06-2.31-.86-4.33-1.55-6.03-2.12-7.56-2.65-14.17-5.52-19.83-8.57-5.67-3.05-10.37-6.44-14.15-10.21-3.78-3.74-6.63-7.87-8.5-12.36-1.89-4.49-2.85-9.51-2.85-15.05,0-5.84,1.22-11.17,3.57-15.96,2.35-4.79,5.73-8.88,10.14-12.26,4.36-3.42,9.66-6.05,15.83-7.92,6.19-1.86,13.1-2.77,20.72-2.77,5.71,0,11.23,.63,16.48,1.91,5.25,1.3,10.43,3.38,15.54,6.21,2.12,1.26,4.18,2.56,6.08,3.91,1.94,1.34,3.61,2.67,5.04,3.92,1.47,1.26,2.62,2.46,3.46,3.59,.86,1.13,1.26,2.12,1.26,2.92,0,.84-.19,1.57-.59,2.29-.42,.69-1.03,1.47-1.86,2.35l-14.45,15.39c-1.07,1.07-2.14,1.62-3.21,1.62-.88,0-1.68-.25-2.4-.76-.73-.5-1.53-1.13-2.41-1.89l-.84-.75c-1.28-1.07-2.67-2.18-4.2-3.32-1.56-1.13-3.21-2.17-4.98-3.09-1.76-.9-3.61-1.66-5.56-2.26-1.98-.59-3.95-.89-5.97-.89s-4.03,.19-5.86,.55c-1.81,.34-3.44,.88-4.81,1.64-1.39,.75-2.48,1.76-3.31,2.98-.82,1.24-1.22,2.71-1.22,4.47s.44,3.32,1.32,4.6c.88,1.3,2.2,2.5,3.97,3.59,1.77,1.11,3.97,2.18,6.57,3.15,2.62,.96,5.65,2.02,9.11,3.15,6.68,2.2,12.83,4.53,18.46,6.95,5.65,2.43,10.5,5.29,14.59,8.62,4.07,3.32,7.3,7.24,9.61,11.88,2.29,4.6,3.4,10.16,3.4,16.73,0,6.93-1.41,13.23-4.24,18.85-2.86,5.65-6.74,10.46-11.69,14.42-4.95,4.01-10.77,7.05-17.44,9.24-6.7,2.16-13.9,3.27-21.56,3.27-7.24,0-14.36-1.3-21.35-3.91-6.99-2.58-13.49-6.08-19.54-10.45-2.52-1.83-4.64-3.63-6.36-5.42-1.74-1.76-3.1-3.19-4.11-4.24l-.3-.33c-.06-.13-.13-.19-.19-.21-.06-.04-.11-.11-.19-.15-.06-.12-.13-.21-.19-.23-.06-.02-.12-.1-.19-.17-1.45-1.58-2.16-2.83-2.16-3.76,0-1.11,.71-2.31,2.16-3.63l16.33-15.57c1.32-.95,2.4-1.43,3.23-1.43,.56,0,1.16,.19,1.78,.56,.63,.4,1.39,.95,2.27,1.7m-223.76-24.71c0-6.65,.84-13.05,2.54-19.21,1.7-6.15,4.13-11.92,7.3-17.3,3.15-5.4,6.93-10.26,11.3-14.69,4.38-4.41,9.25-8.17,14.61-11.27,5.37-3.13,11.11-5.54,17.28-7.28,6.15-1.73,12.58-2.61,19.27-2.61s12.99,.88,19.21,2.61c6.15,1.74,11.93,4.15,17.3,7.28,5.35,3.11,10.24,6.87,14.68,11.27,4.41,4.43,8.19,9.3,11.29,14.69,3.13,5.38,5.54,11.15,7.27,17.3,1.74,6.15,2.62,12.55,2.62,19.21s-.88,13.1-2.62,19.23c-1.73,6.15-4.14,11.9-7.27,17.23-3.11,5.31-6.88,10.16-11.29,14.55-4.43,4.37-9.32,8.15-14.68,11.3-5.38,3.15-11.15,5.56-17.3,7.27-6.21,1.7-12.59,2.56-19.21,2.56s-13.12-.86-19.27-2.56c-6.17-1.7-11.9-4.12-17.28-7.27-5.35-3.15-10.22-6.93-14.61-11.3-4.37-4.39-8.15-9.23-11.3-14.55-3.17-5.33-5.6-11.08-7.3-17.23-1.7-6.13-2.54-12.51-2.54-19.23m36.63-.12c0,5.22,.88,10.12,2.65,14.63,1.76,4.54,4.22,8.49,7.39,11.84,3.19,3.38,6.93,6.02,11.27,7.93,4.35,1.91,9.13,2.9,14.36,2.9s10.01-.98,14.36-2.9c4.37-1.91,8.15-4.56,11.33-7.93,3.17-3.36,5.63-7.31,7.39-11.84,1.77-4.51,2.63-9.4,2.63-14.63s-.86-10.03-2.63-14.61c-1.76-4.56-4.22-8.52-7.39-11.92-3.19-3.4-6.97-6.07-11.33-8.02-4.35-1.95-9.17-2.92-14.36-2.92s-10.01,.97-14.36,2.92c-4.34,1.95-8.08,4.62-11.27,8.02-3.17,3.4-5.63,7.37-7.39,11.92-1.77,4.58-2.65,9.45-2.65,14.61m-197.98-66c0-1.26,.44-2.27,1.3-3.03,.84-.76,1.89-1.13,3.13-1.13h101.71c1.13,0,2.14,.34,3.02,1.05,.88,.69,1.39,1.73,1.51,3.11v23.51c0,1.13-.38,2.2-1.16,3.23-.79,1.05-1.93,1.6-3.37,1.6h-32.56v103.39c0,1.13-.42,2.14-1.24,3.07-.82,.9-1.89,1.36-3.21,1.36h-27.75c-1.09,0-2.08-.44-3.03-1.28-.94-.84-1.42-1.89-1.42-3.15v-103.39h-32.5c-1.24,0-2.29-.42-3.13-1.24-.86-.82-1.3-2.02-1.3-3.58v-23.51Zm-191.08,0c0-1.13,.33-2.1,1.05-2.94,.69-.82,1.72-1.22,3.11-1.22h30.97c.88,0,1.81,.21,2.75,.65,.95,.46,1.76,1.2,2.41,2.29,8,12.89,15.89,25.65,23.74,38.17,7.83,12.53,15.77,25.25,23.79,38.18v-75.7c.25-1.13,.75-2.02,1.51-2.64s1.64-.95,2.64-.95h26.91c1.32,0,2.43,.38,3.32,1.11,.88,.71,1.32,1.72,1.32,3.05v132.48c0,1.26-.38,2.16-1.13,2.77-.75,.59-1.81,.9-3.11,.9h-30.14c-.8,0-1.53-.27-2.17-.84-.63-.57-1.28-1.32-1.97-2.27-8.35-13.85-16.62-27.58-24.79-41.1-8.17-13.54-16.44-27.23-24.9-41.12v81.2c0,1.37-.31,2.41-.95,3.11-.63,.69-1.76,1.03-3.4,1.03h-26.81c-1.45,0-2.5-.4-3.15-1.17-.67-.8-1.01-1.75-1.01-2.88v-132.11Zm-172.2,.19c0-1.32,.38-2.38,1.11-3.15,.72-.8,1.72-1.2,3.04-1.2h93.78c1.38,0,2.46,.4,3.21,1.22,.76,.84,1.13,1.93,1.13,3.32v23.4c0,1.08-.38,2.1-1.13,3.07-.75,.98-1.86,1.49-3.32,1.49h-61.17v23.4h47.21c1.2,0,2.21,.27,2.98,.84,.8,.56,1.18,1.53,1.18,2.85v20.49c0,.88-.36,1.73-1.05,2.54-.69,.82-1.7,1.24-3.03,1.24h-47.3v23.97h63.46c2.81,0,4.24,1.45,4.24,4.35v23.81c0,.63-.25,1.19-.76,1.68-.25,1.78-1.55,2.64-3.86,2.64h-95.58c-1.26,0-2.25-.33-3.02-.98-.76-.67-1.13-1.68-1.13-3.06v-131.92Zm-111.47-.19c0-1.13,.35-2.1,1.05-2.94,.69-.82,1.72-1.22,3.11-1.22h27.86c.95,0,1.95,.38,3.02,1.13,1.07,.76,1.6,1.76,1.6,3.03v132.02c0,2.77-1.53,4.13-4.62,4.13h-27.86c-2.77,0-4.16-1.36-4.16-4.13v-132.02Zm-218.18,0c.13-1.13,.57-2.1,1.32-2.94,.76-.82,1.83-1.22,3.21-1.22h32.69c2.31,0,3.82,1.2,4.54,3.59l25.67,85.8,25.88-85.8c.88-2.39,2.48-3.59,4.81-3.59h32.29c1.13,0,2.18,.4,3.08,1.2,.92,.77,1.43,1.76,1.55,2.96,2.2,22.18,4.47,44.19,6.76,66,2.3,21.81,4.54,43.81,6.74,66.02v.46c0,2.46-1.39,3.67-4.16,3.67h-26.72c-2.9,0-4.41-1.36-4.54-4.13l-8.21-73.08-21.25,73.43c-.12,.65-.56,1.41-1.36,2.27-.77,.88-1.57,1.32-2.33,1.32h-24.81c-.78,0-1.55-.44-2.42-1.28-.84-.84-1.32-1.62-1.38-2.31l-21.24-73.24-8.21,72.89c-.12,2.77-1.68,4.13-4.64,4.13h-26.7c-2.73,0-4.07-1.36-4.07-4.13l13.5-132.02Zm-139.41,39.95c-1.22,3.21-2.4,6.67-3.63,10.37-1.22,3.71-2.46,7.47-3.65,11.25-1.19,3.78-2.39,7.49-3.61,11.17-1.24,3.67-2.46,7.14-3.65,10.35h28.97l-14.42-43.14Zm-17.2-40.43c.06-.38,.27-.78,.64-1.22,.33-.44,.75-.84,1.26-1.24,.51-.38,1.03-.69,1.6-.9,.56-.23,1.11-.32,1.62-.32h24.16c1.07,0,1.99,.32,2.75,.97,.74,.67,1.31,1.26,1.68,1.79l2.37,5.37,49.59,127.95c.48,1.26,.4,2.27-.29,3.07-.69,.77-1.89,1.17-3.59,1.17h-27.1c-1.45,0-2.54-.27-3.32-.79-.8-.55-1.42-1.43-1.87-2.69-1.26-3.21-2.49-6.42-3.67-9.59-1.22-3.19-2.39-6.36-3.59-9.57h-50.15c-1.2,3.21-2.39,6.38-3.63,9.57-1.21,3.17-2.46,6.38-3.63,9.59-.82,2.33-2.43,3.48-4.83,3.48h-27.86c-1.19,0-2.18-.31-2.96-.92-.78-.63-.95-1.6-.45-2.86l51.29-132.86Zm-184.02,30.33v72.51h7.92c1.44,0,2.88-.06,4.26-.15,1.34-.1,2.71-.21,4.12-.33,4.7-.36,9.09-1.49,13.16-3.42,4.07-1.91,7.64-4.43,10.68-7.56,3.03-3.11,5.42-6.76,7.14-10.98,1.74-4.22,2.61-8.82,2.61-13.8,0-5.25-.97-10.12-2.96-14.55-1.99-4.43-4.66-8.27-8.06-11.5-3.36-3.26-7.33-5.78-11.9-7.56-4.53-1.81-9.38-2.67-14.51-2.67h-12.45Zm86.32,36.34c0,6.67-.84,13.02-2.54,19.02-1.7,6-4.13,11.61-7.26,16.79-3.15,5.21-6.91,9.93-11.3,14.15-4.37,4.22-9.22,7.81-14.53,10.77-5.33,2.96-11.09,5.22-17.26,6.82-6.18,1.62-12.55,2.41-19.16,2.41h-46.57c-1.13,0-2.14-.23-3.02-.75-.88-.48-1.32-1.55-1.32-3.19v-131.94c0-1.32,.4-2.37,1.11-3.21,.74-.82,1.78-1.22,3.23-1.22h46.57c6.61,0,12.99,.82,19.12,2.46,6.15,1.64,11.88,3.97,17.19,6.99,5.34,3.02,10.18,6.63,14.57,10.85,4.41,4.22,8.21,8.94,11.32,14.17,3.11,5.23,5.54,10.86,7.26,16.9,1.75,6.05,2.58,12.38,2.58,18.98m-333.38-.06c0-6.65,.84-13.05,2.54-19.21,1.7-6.15,4.14-11.92,7.31-17.3,3.15-5.4,6.93-10.26,11.29-14.69,4.39-4.41,9.28-8.17,14.61-11.27,5.4-3.13,11.1-5.54,17.28-7.28,6.15-1.73,12.58-2.61,19.27-2.61s12.99,.88,19.21,2.61c6.17,1.74,11.92,4.15,17.3,7.28,5.35,3.11,10.22,6.87,14.67,11.27,4.41,4.43,8.19,9.3,11.32,14.69,3.11,5.38,5.52,11.15,7.26,17.3,1.72,6.15,2.61,12.55,2.61,19.21s-.88,13.1-2.61,19.23c-1.74,6.15-4.16,11.9-7.26,17.23-3.13,5.31-6.91,10.16-11.32,14.55-4.45,4.37-9.32,8.15-14.67,11.3-5.37,3.15-11.13,5.56-17.3,7.27-6.21,1.7-12.6,2.56-19.21,2.56s-13.12-.86-19.27-2.56c-6.17-1.7-11.88-4.12-17.28-7.27-5.33-3.15-10.22-6.93-14.61-11.3-4.36-4.39-8.14-9.23-11.29-14.55-3.17-5.33-5.6-11.08-7.31-17.23-1.7-6.13-2.54-12.51-2.54-19.23m36.63-.12c0,5.22,.88,10.12,2.64,14.63,1.76,4.54,4.22,8.49,7.39,11.84,3.19,3.38,6.93,6.02,11.28,7.93,4.34,1.91,9.13,2.9,14.36,2.9s10.01-.98,14.36-2.9c4.36-1.91,8.14-4.56,11.33-7.93,3.17-3.36,5.63-7.31,7.39-11.84,1.76-4.51,2.64-9.4,2.64-14.63s-.88-10.03-2.64-14.61c-1.76-4.56-4.22-8.52-7.39-11.92-3.19-3.4-6.97-6.07-11.33-8.02-4.35-1.95-9.17-2.92-14.36-2.92s-10.02,.97-14.36,2.92c-4.35,1.95-8.08,4.62-11.28,8.02-3.17,3.4-5.63,7.37-7.39,11.92-1.76,4.58-2.64,9.45-2.64,14.61m-133.2-23.79c0-1.89-.34-3.78-1.03-5.67-.69-1.89-1.66-3.63-2.9-5.2-1.26-1.58-2.77-2.9-4.53-3.95-1.75-1.09-3.68-1.76-5.84-2.1-1.73-.11-3.38-.23-4.89-.34-1.56-.1-3.21-.12-5.06-.12h-12.95v34.66h17.28c1.13,0,2.14-.02,3.02-.11,.88-.06,1.83-.15,2.9-.27,2.21-.25,4.18-.92,5.92-1.96,1.76-1.03,3.24-2.33,4.45-3.88,1.16-1.54,2.06-3.28,2.69-5.19,.63-1.91,.95-3.86,.95-5.88m-73.83-42.03c0-1.32,.33-2.38,1.03-3.15,.69-.8,1.72-1.2,3.13-1.2h61.01c6.49,0,12.55,1.22,18.22,3.65,5.65,2.41,10.6,5.69,14.82,9.85,4.22,4.15,7.56,9.04,9.97,14.61,2.42,5.58,3.61,11.52,3.61,17.82,0,4.28-.54,8.36-1.72,12.24-1.15,3.86-2.79,7.5-4.87,10.85-2.08,3.38-4.54,6.42-7.41,9.17-2.85,2.73-6,5.1-9.41,7.03l24.37,45.74c.44,.88,1.01,1.94,1.7,3.13,.67,1.2,1.03,2.23,1.03,3.11,0,1.01-.32,1.76-.97,2.31-.67,.53-1.6,.79-2.73,.79h-32.48c-1.07,0-2.02-.31-2.85-.92-.86-.63-1.42-1.49-1.68-2.56l-22.88-43.14h-15.26v42.57c0,2.7-1.45,4.05-4.35,4.05h-28.13c-1.28,0-2.29-.33-3.02-.98-.76-.67-1.13-1.68-1.13-3.06v-131.92Z"></path></g></svg>